<?xml version="1.0" encoding="UTF-8"?>
<svg id="Camada_2" data-name="Camada 2" xmlns="http://www.w3.org/2000/svg" viewBox="0 0 14.88 15">
  <defs>
    <style>
      .cls-1 {
        fill: #666;
      }
    </style>
  </defs>
  <g id="Produtos_seleção_cópia" data-name="Produtos seleção cópia">
    <g id="_00Float_cópia_cópia_cópia_cópia_cópia_2" data-name="00Float cópia cópia cópia cópia cópia 2">
      <g id="whatsapp">
        <g id="icon">
          <path class="cls-1" d="M12.73,2.21c-2.89-2.92-7.6-2.94-10.53-.05C-.09,4.43-.66,7.93,.81,10.82L.02,14.65c-.02,.08,0,.16,.05,.22,.07,.1,.19,.15,.31,.12l3.76-.89c3.68,1.83,8.15,.33,9.98-3.35,1.42-2.85,.86-6.28-1.37-8.54h0Zm-1.17,9.35c-1.77,1.77-4.47,2.21-6.71,1.09l-.52-.26-2.3,.55v-.03s.48-2.32,.48-2.32l-.26-.51c-1.15-2.25-.71-4.98,1.07-6.76,2.28-2.28,5.97-2.28,8.24,0,0,.01,.02,.02,.03,.03,2.25,2.28,2.23,5.95-.03,8.21Z"/>
          <path class="cls-1" d="M11.36,9.86c-.28,.44-.73,.99-1.29,1.12-.98,.24-2.49,0-4.36-1.74l-.02-.02c-1.65-1.53-2.08-2.8-1.97-3.81,.06-.57,.53-1.09,.94-1.43,.23-.19,.56-.17,.76,.06,.03,.04,.06,.08,.08,.13l.61,1.36c.08,.18,.05,.39-.07,.55l-.31,.4c-.13,.17-.15,.4-.05,.59,.17,.3,.58,.74,1.04,1.16,.51,.46,1.08,.89,1.44,1.03,.2,.08,.42,.03,.57-.12l.36-.36c.14-.14,.34-.19,.53-.14l1.44,.41c.29,.09,.45,.39,.36,.68-.01,.04-.03,.09-.06,.12h0Z"/>
        </g>
      </g>
    </g>
  </g>
</svg>