<svg width="75" height="75" viewBox="0 0 75 75" fill="none" xmlns="http://www.w3.org/2000/svg">
<path fill-rule="evenodd" clip-rule="evenodd" d="M23.194 67.5283L5.39062 73.1941L0 74.9094L7.57295 52.5415C6.30211 50.2055 5.29546 47.7308 4.57827 45.1681C3.70824 42.0585 3.26925 38.8449 3.26925 35.6161C3.26925 26.1148 7.04947 17.1073 13.7884 10.4226C20.5493 3.71606 29.6243 0 39.1452 0C48.6633 0 57.7333 3.72053 64.4884 10.428C71.2246 17.1167 75 26.1264 75 35.6274C75 45.127 71.2205 54.1335 64.4835 60.8178C57.7252 67.5232 48.6532 71.2405 39.1346 71.2405C36.1147 71.2405 33.1061 70.8677 30.18 70.1191C27.7669 69.5018 25.4249 68.632 23.194 67.5283L23.194 67.5283Z" fill="#EEEEEE"/>
<path fill-rule="evenodd" clip-rule="evenodd" d="M72.1397 35.6274C72.1397 26.5799 68.4455 18.3881 62.473 12.4575C56.5012 6.52785 48.2533 2.86022 39.1452 2.86022C30.0292 2.86022 21.7773 6.5266 15.8027 12.4531C9.82546 18.3822 6.12941 26.5725 6.12941 35.6159C6.12941 38.6516 6.54926 41.5975 7.33266 44.3972C8.1111 47.1789 9.24988 49.8127 10.6934 52.2437L4.97522 69.1331L4.52319 70.4684L5.86629 70.041L23.4538 64.444C25.7823 65.6971 28.2735 66.6789 30.8889 67.3481C33.524 68.0222 36.2856 68.3802 39.1346 68.3802C48.2465 68.3802 56.4958 64.7136 62.4688 58.7874C68.4444 52.8586 72.1397 44.6691 72.1397 35.6274L72.1397 35.6274Z" fill="#54CC61"/>
<path fill-rule="evenodd" clip-rule="evenodd" d="M33.7779 26.6829C33.6331 26.391 32.7967 24.3711 32.0259 22.5093C31.5331 21.3191 31.0632 20.1841 30.971 19.9645C30.1029 17.8947 29.1434 17.9571 28.4075 18.0049C28.3592 18.0081 28.3126 18.0111 28.2504 18.0111C27.9936 18.0111 27.7412 17.9951 27.4797 17.9786C27.1527 17.9578 26.8133 17.9363 26.4925 17.9363C26.0661 17.9363 25.4852 18.0248 24.8736 18.3111C24.4201 18.5233 23.9521 18.843 23.5238 19.3136C23.4614 19.381 23.4143 19.4305 23.3632 19.4842C22.3442 20.5553 20.1229 22.8902 20.1229 27.3744C20.1229 32.0782 23.515 36.5515 24.0134 37.2084L24.0116 37.2097L24.0162 37.2158L24.0218 37.2214C24.0414 37.2466 24.1134 37.3519 24.2198 37.5076C25.4725 39.3397 31.2315 47.7624 39.9862 51.1818C47.9285 54.281 49.3657 53.9331 50.6494 53.6226C50.8679 53.5697 51.0813 53.518 51.3121 53.4967C52.3516 53.399 54.0522 52.6873 55.4833 51.688C56.6705 50.859 57.7068 49.8113 58.1035 48.7082C58.4575 47.7219 58.6577 46.8056 58.7505 46.0514C58.8853 44.9558 58.7785 44.0938 58.5792 43.7608L58.5764 43.7579C58.2733 43.2586 57.7491 43.0111 56.9627 42.6398C56.824 42.5743 56.6757 42.5044 56.5332 42.4354L56.5337 42.4345C55.9914 42.1587 54.1153 41.2414 52.5115 40.4833C51.4753 39.9934 50.5544 39.5725 50.1898 39.4416C49.6768 39.2574 49.2299 39.1181 48.7508 39.1721C48.2076 39.2334 47.7337 39.5132 47.2945 40.1785L47.2931 40.1777C47.0725 40.509 46.6839 41.0059 46.2591 41.5262C45.5864 42.3504 44.7838 43.2758 44.4418 43.6643V43.6671C44.2957 43.8334 44.1698 43.924 44.0463 43.9389C43.8749 43.9596 43.6393 43.8893 43.3131 43.7291C43.1046 43.6248 42.9014 43.537 42.6507 43.4288C41.3824 42.8816 38.9122 41.8158 36.0969 39.3232C35.0899 38.4319 34.2036 37.4575 33.4634 36.5432C32.2655 35.0635 31.4559 33.7452 31.1342 33.1899C30.8803 32.7544 31.1624 32.4721 31.4229 32.2116L31.4216 32.2101C31.7096 31.9224 32.0356 31.5306 32.3628 31.1374C32.5117 30.9584 32.6607 30.7792 32.842 30.5704L32.8448 30.5676C33.286 30.0546 33.4688 29.681 33.7157 29.1767C33.7587 29.089 33.8037 28.997 33.8491 28.9066L33.8518 28.9038C34.0689 28.4664 34.1244 28.0502 34.084 27.6603C34.0465 27.2974 33.925 26.9735 33.7768 26.6834L33.7779 26.6829Z" fill="#FFFFFE"/>
</svg>
